<svg width="32" height="32" viewBox="0 0 32 32" fill="none" xmlns="http://www.w3.org/2000/svg">
<path d="M26.6666 5.33337H5.33329C3.86263 5.33337 2.66663 6.52937 2.66663 8.00004V24C2.66663 25.4707 3.86263 26.6667 5.33329 26.6667H26.6666C28.1373 26.6667 29.3333 25.4707 29.3333 24V8.00004C29.3333 6.52937 28.1373 5.33337 26.6666 5.33337ZM26.6666 8.00004V8.68137L16 16.9787L5.33329 8.68271V8.00004H26.6666ZM5.33329 24V12.0587L15.1813 19.7187C15.4148 19.9021 15.7031 20.0018 16 20.0018C16.2969 20.0018 16.5851 19.9021 16.8186 19.7187L26.6666 12.0587L26.6693 24H5.33329Z" fill="black"/>
</svg>
