<svg width="32" height="32" viewBox="0 0 32 32" fill="none" xmlns="http://www.w3.org/2000/svg">
<path d="M16.0001 18.6667C18.9415 18.6667 21.3335 16.2747 21.3335 13.3334C21.3335 10.3921 18.9415 8.00008 16.0001 8.00008C13.0588 8.00008 10.6668 10.3921 10.6668 13.3334C10.6668 16.2747 13.0588 18.6667 16.0001 18.6667ZM16.0001 10.6667C17.4708 10.6667 18.6668 11.8627 18.6668 13.3334C18.6668 14.8041 17.4708 16.0001 16.0001 16.0001C14.5295 16.0001 13.3335 14.8041 13.3335 13.3334C13.3335 11.8627 14.5295 10.6667 16.0001 10.6667ZM15.2268 29.0854C15.4525 29.2466 15.7229 29.3332 16.0002 29.3332C16.2775 29.3332 16.5478 29.2466 16.7735 29.0854C17.1788 28.7987 26.7055 21.9201 26.6668 13.3334C26.6668 7.45208 21.8815 2.66675 16.0002 2.66675C10.1188 2.66675 5.33349 7.45208 5.33349 13.3267C5.29482 21.9201 14.8215 28.7987 15.2268 29.0854ZM16.0002 5.33341C20.4122 5.33341 24.0002 8.92142 24.0002 13.3401C24.0282 19.2574 18.1495 24.5707 16.0002 26.3134C13.8522 24.5694 7.97216 19.2547 8.00016 13.3334C8.00016 8.92141 11.5882 5.33341 16.0002 5.33341Z" fill="black"/>
<path d="M16.0001 18.6667C18.9415 18.6667 21.3335 16.2747 21.3335 13.3334C21.3335 10.3921 18.9415 8.00008 16.0001 8.00008C13.0588 8.00008 10.6668 10.3921 10.6668 13.3334C10.6668 16.2747 13.0588 18.6667 16.0001 18.6667ZM16.0001 10.6667C17.4708 10.6667 18.6668 11.8627 18.6668 13.3334C18.6668 14.8041 17.4708 16.0001 16.0001 16.0001C14.5295 16.0001 13.3335 14.8041 13.3335 13.3334C13.3335 11.8627 14.5295 10.6667 16.0001 10.6667ZM15.2268 29.0854C15.4525 29.2466 15.7229 29.3332 16.0002 29.3332C16.2775 29.3332 16.5478 29.2466 16.7735 29.0854C17.1788 28.7987 26.7055 21.9201 26.6668 13.3334C26.6668 7.45208 21.8815 2.66675 16.0002 2.66675C10.1188 2.66675 5.33349 7.45208 5.33349 13.3267C5.29482 21.9201 14.8215 28.7987 15.2268 29.0854ZM16.0002 5.33341C20.4122 5.33341 24.0002 8.92142 24.0002 13.3401C24.0282 19.2574 18.1495 24.5707 16.0002 26.3134C13.8522 24.5694 7.97216 19.2547 8.00016 13.3334C8.00016 8.92141 11.5882 5.33341 16.0002 5.33341Z" fill="black"/>
</svg>
